<?xml version="1.0" encoding="utf-8"?>
<!-- Generator: Adobe Illustrator 22.0.1, SVG Export Plug-In . SVG Version: 6.00 Build 0)  -->
<svg version="1.1" id="Layer_1" xmlns="http://www.w3.org/2000/svg" xmlns:xlink="http://www.w3.org/1999/xlink" x="0px" y="0px"
	 viewBox="0 0 484.3 512.8" style="enable-background:new 0 0 484.3 512.8;" xml:space="preserve">
<style type="text/css">
	.st0{fill:none;stroke:#FFF;stroke-width:4;stroke-linecap:round;stroke-linejoin:round;stroke-miterlimit:10;}
	.st1{fill:none;stroke:#FFF;stroke-width:2;stroke-linecap:round;stroke-linejoin:round;stroke-miterlimit:10;}
	.st2{fill:none;stroke:#FFF;stroke-width:2;stroke-linecap:round;stroke-linejoin:round;}
	.st3{fill:none;stroke:#FFF;stroke-width:2;stroke-linecap:round;stroke-linejoin:round;stroke-dasharray:13.4287,11.1906;}
	.st4{fill:none;stroke:#FFF;stroke-width:2;stroke-linecap:round;stroke-linejoin:round;stroke-dasharray:9.0613,9.0613;}
	.st5{fill:none;stroke:#FFF;stroke-width:2;stroke-linecap:round;stroke-linejoin:round;stroke-dasharray:11.148,13.3776;}
	.st6{fill:none;stroke:#FFF;stroke-width:2;stroke-linecap:round;stroke-linejoin:round;stroke-dasharray:6.7353,7.6975;}
	.st7{fill:none;stroke:#FFF;stroke-width:2;stroke-linecap:round;stroke-linejoin:round;stroke-dasharray:12.9946,11.8133;}
	.st8{fill:none;stroke:#FFF;stroke-width:2;stroke-linecap:round;stroke-linejoin:round;stroke-dasharray:7.1588,7.1588;}
	.st9{fill:none;stroke:#FFF;stroke-width:2;stroke-linecap:round;stroke-linejoin:round;stroke-dasharray:9.1554,9.1554;}
	.st10{fill:none;stroke:#FFF;stroke-width:2;stroke-linecap:round;stroke-linejoin:round;stroke-dasharray:7.232,7.232;}
	.st11{fill:none;stroke:#FFF;stroke-width:2;stroke-linecap:round;stroke-linejoin:round;stroke-dasharray:13.575,11.3125;}
	.st12{fill:none;stroke:#FFF;stroke-width:2;stroke-linecap:round;stroke-linejoin:round;stroke-dasharray:0,8.7268,8.7268,0;}
	
		.st13{fill:none;stroke:#FFF;stroke-width:2;stroke-linecap:round;stroke-linejoin:round;stroke-dasharray:8.7268,8.7268,0,8.7268,8.7268,0;}
	.st14{fill:none;stroke:#FFF;stroke-width:2;stroke-linecap:round;stroke-linejoin:round;stroke-dasharray:9.0125,9.0125;}
	.st15{fill:none;stroke:#FFF;stroke-width:2;stroke-linecap:round;stroke-linejoin:round;stroke-dasharray:5.2375,5.2375;}
</style>
<g>
	<path class="st0" d="M333.4,356.5c0,9.8-1.5,19.7-4.6,29c-2.9,9-7.3,17.6-12.8,25.3c-1.7,2.4-3.5,4.7-5.4,6.9
		c-4.2,4.9-8.9,9.3-14,13.2c-7.2,5.5-15.2,10-23.7,13.3c-0.4,0.1-0.8,0.3-1.1,0.4c-9.2,3.4-18.9,5.3-28.7,5.6
		c-9.9,0.4-19.8-0.8-29.3-3.5c-9.2-2.6-17.9-6.6-25.9-11.8c-7.8-5.1-14.8-11.5-20.8-18.7c-6-7.3-10.9-15.5-14.5-24.2
		c-3.7-9-5.9-18.6-6.7-28.3c-0.8-9.9,0-19.9,2.4-29.6c2.3-9.3,6-18.2,10.9-26.4c4.9-8,10.9-15.3,17.9-21.5c7-6.3,15-11.5,23.6-15.4
		c7.4-3.4,15.2-5.7,23.3-7.1c-1.2,6-2.8,12.9-4.3,19.6c-0.5,2.4-1,4.7-1.5,6.9c-2.2,0.1-3.6,0.2-3.6,0.2s-28.1,10.2-28.1,12.7
		c0,2.6,20.4,0.6,20.4,3.8s-24.9,19.2-20.4,23s16.5-7.7,20.4-5.1c1.8,1.2-1.6,9.3-5.3,17.7c-4.2,9.5-8.6,19.4-6.2,20.7
		c3.1,1.6,14.8-13,22.9-22.4c3.8-4.4,6.8-7.7,7.8-7.7c0.8,0,1.4,2.8,2,7.1c1.8,13.1,3.1,39.9,7,40.9c4,1,7.2-27.5,10.4-41.1
		c1-4.1,2-6.8,3-6.9c1.3-0.2,3.5,2.9,6.1,7.3c6.3,10.6,14.9,29.3,18.5,29.3c3.1,0-1.8-15.8-5.1-28.3c6.6,0.6,13.2,1.5,19.8,2.6h0
		c2.6,1.5,4.8,2.2,6.4,1.2c6.6,1.3,13.1,2.8,19.6,4.6c6.5,1.8,13.1,3.9,19.4,6.6C333.3,356.4,333.4,356.5,333.4,356.5z"/>
	<path class="st0" d="M287.8,344.1c-6.6-1.1-13.2-2-19.8-2.6c-2.1-7.7-3.5-14-2.1-14.5C268.7,325.9,279.8,339.3,287.8,344.1z"/>
	<path class="st0" d="M333.4,356.5c0,0-0.1-0.1-0.2-0.1c-6.3-2.7-12.9-4.8-19.4-6.6c-6.4-1.8-13-3.3-19.6-4.6c0,0,0,0,0.1,0
		c6.6-4.3-19.1-25.4-14.9-31.8c4.2-6.4,10.5,7,16,2.6s-28.3-22.1-28.3-25.5c0-0.5-1.3-0.9-3.4-1.2c-0.3-2-0.4-3.9-0.6-5.7
		c-0.1-1-0.1-2-0.1-2.9c-0.1-5.8,0.8-10.6,2.2-14.7c6.9,2,13.6,4.8,19.8,8.3c8.2,4.6,15.7,10.4,22.1,17.1c2.2,2.3,4.2,4.6,6.1,7.1
		c3.9,5,7.3,10.3,10.1,15.9c4.3,8.6,7.2,17.9,8.7,27.4C333.1,346.8,333.4,351.6,333.4,356.5z"/>
	<path class="st0" d="M168.4,417.6c4.3-2.1,8.8-3.8,13.3-5.3c11-3.9,22.4-6.8,34-8.5c14.5-2.2,29.2-2.5,43.8-0.7
		c11.9,1.5,23.7,4.3,35.1,8.1c5.4,1.8,10.8,3.8,15.9,6.4c0.1,0,0.1,0.1,0.2,0.1"/>
	<path class="st0" d="M145.8,356.5c5.2-2.3,10.8-4,16.2-5.6c12.9-3.8,26.2-6.5,39.6-8.3"/>
	<path class="st0" d="M313.7,298.8c0,0-0.1-0.1-0.2-0.1c-0.1-0.1-0.2-0.1-0.3-0.1c-5.4-2.5-11.1-4.7-16.8-6.7
		c-10.8-3.7-22-6.5-33.3-8.2"/>
	<path class="st0" d="M165.5,298.9c4.7-2.2,9.5-4,14.4-5.8c11.5-4.1,23.3-7.2,35.4-9.1c1.4-0.2,2.9-0.5,4.4-0.6"/>
	<path class="st0" d="M206.8,444.4c7.4-4.3,16.1-6.3,24.5-7.1c9.6-1,19.6-0.4,29,2c4.4,1.1,8.8,2.7,12.7,4.9"/>
</g>
<path class="st0" d="M295.4,316c-5.5,4.4-11.8-9-16-2.6c-4.2,6.4,21.5,27.5,14.9,31.8c0,0,0,0-0.1,0c-1.6,1-3.8,0.3-6.4-1.2h0
	c-8.1-4.8-19.1-18.1-21.9-17.2c-1.4,0.5,0,6.9,2.1,14.5c3.3,12.4,8.2,28.3,5.1,28.3c-3.5,0-12.1-18.6-18.5-29.3
	c-2.6-4.4-4.8-7.4-6.1-7.3c-1,0.2-2,2.9-3,6.9c-3.3,13.5-6.4,42.1-10.4,41.1c-3.9-1-5.2-27.7-7-40.9c-0.6-4.3-1.2-7.1-2-7.1
	c-1,0-4,3.3-7.8,7.7c-8.1,9.4-19.8,24-22.9,22.4c-2.4-1.3,2-11.2,6.2-20.7c3.7-8.4,7.2-16.5,5.3-17.7c-3.9-2.6-15.9,8.9-20.4,5.1
	s20.4-19.8,20.4-23s-20.4-1.2-20.4-3.8c0-2.5,28.1-12.7,28.1-12.7s1.3-0.1,3.6-0.2c-2.3,11.1-3.5,20.4-0.6,21.9
	c7.4,3.9,48.1,0.8,49.1,0c0.8-0.6-1.7-12.6-3-22.9c2.1,0.2,3.4,0.6,3.4,1.2C267.1,293.9,300.9,311.6,295.4,316z"/>
<path class="st0" d="M322.4,191.3c-0.1,0.1-0.2,0.2-0.3,0.4c0.2-0.2,0.2-0.4,0.2-0.4l-6.8-1.1c0,0-4.5,4.1-4.2,5.5
	c0.4,1.5,7,1.8,7.1,1.5c0,0,0.1-0.2,0.3-0.5c-0.7,1.3-1.3,2.6-1.6,3.7c-0.1,0.4-0.2,0.8-0.3,1.1c-0.6,3.3-0.2,6.6-1,8.8
	c-0.8,2.1-8,8.2-10.5,13.1s-4,7.6-9.5,10.5s-23.3,17-26.6,23c-1.5,2.7-2.9,5.7-4,9.1c-1.4,4.1-2.3,8.9-2.2,14.7
	c0,0.9,0.1,1.9,0.1,2.9c0.1,1.8,0.3,3.7,0.6,5.7c1.3,10.3,3.8,22.3,3,22.9c-1,0.8-41.7,3.9-49.1,0c-2.9-1.5-1.7-10.8,0.6-21.9
	c0.5-2.2,1-4.6,1.5-6.9c1.5-6.7,3.1-13.6,4.3-19.6c0.9-4.5,1.5-8.5,1.6-11.5c0.1-2-0.1-3.6-0.6-4.6c-4.1-8.3-8.9-17.5-13.6-23.3
	c-2.7-3.3-5.9-6.8-8.1-10.4c-1.4-2.3-2.5-4.6-2.7-7c33.5,5.1,58.8,15.7,58.8,15.7s10.7-4.9,25.3-11c2.3,1.3,4.7,2.7,6,3.3
	c0.5,0.2,0.8,0.4,0.9,0.4c0.4,0,2.4-0.8,4.3-2.6c1-1,2-2.3,2.7-4c0.4-0.9,0.7-1.9,1-3c1.4-4.9,2.5-11.3,4.3-13.2
	c2.1-2.3,6.8-7,9.9-7.6c3.1-0.6,8.6,0,8.6,0C324,186.7,324.1,189.6,322.4,191.3z"/>
<path class="st0" d="M322.3,191.3c0,0-0.1,0.1-0.2,0.4c0,0,0,0,0,0.1c-1,1.1-2.2,3-3.3,5c0,0,0,0,0,0c-0.2,0.3-0.3,0.4-0.3,0.5
	c-0.1,0.3-6.7,0-7.1-1.5c-0.3-1.4,4.2-5.5,4.2-5.5L322.3,191.3z"/>
<path class="st1" d="M336,196c0.4,0,0.6,0,0.6,0"/>
<path class="st1" d="M322,199.3c-2.2,1.4-3.9,3.3-4.5,6c0,0,38.1-7.9,48.6-7.9l-7.4-131.5l-11,4.5l-0.1,0"/>
<path class="st1" d="M296.5,212.4c-0.2,0.1-0.4,0.2-0.6,0.3c-1.9,0.8-3.6,1.6-5.2,2.3"/>
<path class="st1" d="M203.3,213.9c-31.1-4.6-55.3-3.8-55.3-3.8l-9.2-128.3l9.2,2.7l0.1,0"/>
<path class="st0" d="M233.1,253.4c0,0,8.3,6.3,16.6,6.3"/>
<path class="st0" d="M260.3,260.4c2.2-0.7,5.9-1.5,5.9-1.5"/>
<g>
	<g>
		<path class="st0" d="M299.6,205.7L299.6,205.7 M333.9,60L333.9,60 M317.1,200.5L317.1,200.5"/>
		<path class="st0" d="M342,178.1c-18-1-53.9,14.3-72.3,22.8c-7,3.2-11.5,5.5-11.5,5.5s-1.6-0.5-4.4-1.3
			c-14.3-4.2-59.8-16.7-84.5-15c-1.7-24.7-6.5-94.6-8.1-118.2c39.3-2.6,89,17.7,89,17.7s50.9-27.2,83.7-29.6c0,0,0,0.1,0,0.1
			C335.7,86.9,340.2,151.2,342,178.1z"/>
		<path class="st0" d="M358.8,190.6L336,196h0c-2.1,0-9.2,0.3-14,3.3l-4.9,1.2c0.4-1.2,0.9-2.5,1.6-3.7c0,0,0,0,0,0
			c0.8-1.2,2.6-3.9,3.3-5c0,0,0,0,0-0.1c0.1-0.1,0.2-0.3,0.3-0.4c1.7-1.7,1.6-4.6,0-6.4c0,0-5.5-0.6-8.6,0c-3.1,0.6-7.8,5.3-9.9,7.6
			c-1.8,2-2.9,8.3-4.3,13.2c-5.2,2-10.3,4-14.9,5.9c-14.6,6-25.3,11-25.3,11s-25.3-10.6-58.8-15.7c-14.5-2.2-30.5-3.4-46.7-2.3
			c-1.3-19.1-8.1-118-8.1-118l2.2-2.1l13.2-12.7c1.6,23.6,6.4,93.5,8.1,118.2c24.6-1.7,70.2,10.8,84.5,15c2.8,0.8,4.4,1.3,4.4,1.3
			s4.5-2.2,11.5-5.5c18.4-8.5,54.4-23.8,72.3-22.8c-1.8-26.9-6.3-91.2-8.1-118.1l13.8,10.3l3,2.2
			C350.7,72.6,356.8,162.2,358.8,190.6z"/>
	</g>
	<g>
		<g>
			<path class="st2" d="M172.5,86.2c0,0,2.2,0.1,6,0.4"/>
			<path class="st3" d="M189.6,87.8c12.4,1.5,29.4,4.1,42.7,8.7"/>
			<path class="st2" d="M237.5,98.5c1.9,0.8,3.7,1.7,5.4,2.6"/>
		</g>
	</g>
	<g>
		<g>
			<path class="st2" d="M173.4,98.5c0,0,1.7,0.1,4.5,0.3"/>
			<path class="st4" d="M186.9,99.7c13.3,1.4,33.8,4.4,48.7,10"/>
			<path class="st2" d="M239.8,111.5c1.4,0.6,2.8,1.3,4,2"/>
		</g>
	</g>
	<g>
		<g>
			<path class="st2" d="M174.3,110.5c0,0,1.8,0.1,5,0.4"/>
			<path class="st5" d="M192.6,112.2c12.3,1.5,28.5,4.1,41.4,8.6"/>
			<path class="st2" d="M240.2,123.2c1.6,0.7,3.1,1.4,4.5,2.2"/>
		</g>
	</g>
	<g>
		<g>
			<path class="st2" d="M175.2,123.4c0,0,1.3,0.1,3.5,0.2"/>
			<path class="st6" d="M186.4,124.3c13.6,1.3,36.7,4.4,52.6,10.9"/>
			<path class="st2" d="M242.6,136.8c1.1,0.5,2.1,1,3.1,1.6"/>
		</g>
	</g>
	<g>
		<g>
			<path class="st2" d="M176.2,136.3c0,0,2,0.1,5.5,0.4"/>
			<path class="st7" d="M193.4,137.9c12.5,1.5,29.5,4.1,42.7,8.8"/>
			<path class="st2" d="M241.7,148.8c1.8,0.8,3.4,1.6,4.9,2.4"/>
		</g>
	</g>
	<g>
		<g>
			<path class="st2" d="M175.5,149.9c0,0,1.5,0.1,4,0.3"/>
			<path class="st8" d="M186.6,150.8c13.5,1.3,36.5,4.4,52.4,10.8"/>
			<path class="st2" d="M242.3,163c1.3,0.6,2.4,1.2,3.6,1.8"/>
		</g>
	</g>
	<g>
		<g>
			<path class="st2" d="M176.5,163.3c0,0,1.7,0.1,4.5,0.3"/>
			<path class="st4" d="M190,164.5c13.3,1.4,33.8,4.4,48.7,10"/>
			<path class="st2" d="M242.8,176.3c1.4,0.6,2.8,1.3,4,2"/>
		</g>
	</g>
	<g>
		<g>
			<path class="st2" d="M177.4,176.3c0,0,2.2,0.1,6,0.4"/>
			<path class="st3" d="M194.5,177.8c12.4,1.5,29.4,4.1,42.7,8.7"/>
			<path class="st2" d="M242.4,188.6c1.9,0.8,3.7,1.7,5.4,2.6"/>
		</g>
	</g>
	<g>
		<g>
			<path class="st2" d="M322,75.3c0,0-1.6,0.3-4.4,1"/>
			<path class="st9" d="M308.8,78.4c-13.1,3.4-33.2,9.3-47.2,17.1"/>
			<path class="st2" d="M257.6,97.8c-1.3,0.8-2.5,1.7-3.7,2.6"/>
		</g>
	</g>
	<g>
		<g>
			<path class="st2" d="M323,87.6c0,0-1.4,0.3-3.9,0.8"/>
			<path class="st10" d="M312,90.1c-13.3,3.3-35.9,9.8-50.9,18.4"/>
			<path class="st2" d="M258.1,110.4c-1.2,0.8-2.2,1.5-3.3,2.3"/>
		</g>
	</g>
	<g>
		<g>
			<path class="st2" d="M323.8,99.5c0,0-2.2,0.4-5.9,1.3"/>
			<path class="st11" d="M307,103.5c-12.2,3.3-28.8,8.4-41.4,15"/>
			<path class="st2" d="M260.6,121.3c-1.8,1.1-3.5,2.2-5,3.4"/>
		</g>
	</g>
	<g>
		<g>
			<path class="st2" d="M324.8,112.5c0,0-2.2,0.4-5.9,1.3"/>
			<path class="st12" d="M310.5,115.8c-4.9,1.3-10.7,2.9-16.8,4.8"/>
			<path class="st13" d="M293.7,120.7c-11.2,3.5-23.2,8.1-32.1,13.6"/>
			<path class="st2" d="M261.6,134.2c-1.8,1.1-3.5,2.2-5,3.4"/>
		</g>
	</g>
	<g>
		<g>
			<path class="st2" d="M325.7,125.4c0,0-1.4,0.3-3.9,0.8"/>
			<path class="st10" d="M314.8,127.9c-13.3,3.3-35.9,9.8-50.9,18.4"/>
			<path class="st2" d="M260.9,148.2c-1.2,0.8-2.2,1.5-3.3,2.3"/>
		</g>
	</g>
	<g>
		<g>
			<path class="st2" d="M328.5,138.6c0,0-1.8,0.4-4.9,1.1"/>
			<path class="st14" d="M314.8,141.8c-13,3.3-32.6,9.2-46.5,16.8"/>
			<path class="st2" d="M264.4,160.9c-1.5,0.9-2.8,1.9-4.1,2.8"/>
		</g>
	</g>
	<g>
		<g>
			<path class="st2" d="M329.5,152.1c0,0-0.9,0.2-2.4,0.5"/>
			<path class="st15" d="M321.9,153.8c-13.1,3.1-40.2,10.4-56.4,20.5"/>
			<path class="st2" d="M263.3,175.8c-0.7,0.5-1.4,1-2,1.5"/>
		</g>
	</g>
	<g>
		<g>
			<path class="st2" d="M330.4,165c0,0-1.8,0.4-4.9,1.1"/>
			<path class="st14" d="M316.8,168.2c-13,3.3-32.6,9.2-46.5,16.8"/>
			<path class="st2" d="M266.4,187.3c-1.5,0.9-2.8,1.9-4.1,2.8"/>
		</g>
	</g>
</g>
<path class="st1" d="M322.3,191.3c0,0-0.1,0.1-0.2,0.4c0,0,0,0,0,0.1c-0.7,1-2.6,3.8-3.3,5c0,0,0,0,0,0c-0.2,0.3-0.3,0.4-0.3,0.5
	c-0.1,0.3-6.7,0-7.1-1.5c-0.3-1.4,4.2-5.5,4.2-5.5L322.3,191.3z"/>
</svg>
