<?xml version="1.0" encoding="utf-8"?>
<!-- Generator: Adobe Illustrator 16.0.0, SVG Export Plug-In . SVG Version: 6.00 Build 0)  -->
<!DOCTYPE svg PUBLIC "-//W3C//DTD SVG 1.1//EN" "http://www.w3.org/Graphics/SVG/1.1/DTD/svg11.dtd">
<svg version="1.1" id="Layer_1" xmlns="http://www.w3.org/2000/svg" xmlns:xlink="http://www.w3.org/1999/xlink" x="0px" y="0px"
	 width="612px" height="792px" viewBox="0 0 612 792" enable-background="new 0 0 612 792" xml:space="preserve">
<g>
	<path fill="none" stroke="#000000" stroke-width="4" stroke-linecap="round" stroke-linejoin="round" stroke-miterlimit="10" d="
		M421.311,522.494c0,12.384-1.896,24.895-5.813,36.646c-3.665,11.373-9.225,22.241-16.176,31.972
		c-2.147,3.032-4.423,5.939-6.823,8.719c-5.308,6.192-11.247,11.753-17.691,16.681c-9.099,6.95-19.208,12.637-29.949,16.808
		c-0.506,0.126-1.011,0.379-1.391,0.505c-11.626,4.297-23.883,6.697-36.268,7.077c-12.51,0.505-25.021-1.011-37.025-4.423
		c-11.626-3.286-22.62-8.341-32.729-14.912c-9.856-6.444-18.702-14.532-26.285-23.631c-7.582-9.225-13.774-19.587-18.323-30.581
		c-4.675-11.373-7.456-23.504-8.466-35.762c-1.011-12.511,0-25.147,3.033-37.405c2.906-11.752,7.582-22.999,13.774-33.36
		c6.192-10.109,13.774-19.335,22.62-27.17c8.846-7.961,18.955-14.532,29.823-19.46c9.351-4.297,19.208-7.203,29.444-8.973
		c-1.517,7.582-3.539,16.302-5.434,24.769c-0.632,3.032-1.264,5.939-1.896,8.719c-2.78,0.127-4.549,0.253-4.549,0.253
		s-35.509,12.89-35.509,16.049c0,3.286,25.779,0.759,25.779,4.802c0,4.044-31.465,24.263-25.779,29.065
		c5.687,4.802,20.851-9.73,25.779-6.445c2.275,1.517-2.021,11.752-6.697,22.367c-5.308,12.005-10.868,24.516-7.835,26.158
		c3.917,2.021,18.703-16.428,28.938-28.307c4.802-5.56,8.593-9.73,9.856-9.73c1.011,0,1.77,3.539,2.527,8.973
		c2.275,16.554,3.917,50.421,8.846,51.685c5.055,1.264,9.099-34.751,13.143-51.938c1.264-5.181,2.527-8.593,3.791-8.72
		c1.643-0.252,4.423,3.665,7.708,9.226c7.962,13.395,18.829,37.025,23.379,37.025c3.917,0-2.275-19.966-6.445-35.762
		c8.341,0.758,16.681,1.896,25.021,3.285l0,0c3.286,1.896,6.066,2.78,8.088,1.517c8.341,1.643,16.555,3.538,24.769,5.813
		c8.214,2.275,16.554,4.929,24.515,8.341C421.185,522.368,421.311,522.494,421.311,522.494z"/>
	<path fill="none" stroke="#000000" stroke-width="4" stroke-linecap="round" stroke-linejoin="round" stroke-miterlimit="10" d="
		M363.687,506.824c-8.34-1.39-16.68-2.527-25.021-3.285c-2.653-9.73-4.423-17.691-2.653-18.323
		C339.551,483.826,353.577,500.759,363.687,506.824z"/>
	<path fill="none" stroke="#000000" stroke-width="4" stroke-linecap="round" stroke-linejoin="round" stroke-miterlimit="10" d="
		M421.311,522.494c0,0-0.126-0.126-0.253-0.126c-7.961-3.412-16.301-6.065-24.515-8.341c-8.088-2.274-16.428-4.17-24.769-5.813
		c0,0,0,0,0.127,0c8.34-5.434-24.137-32.098-18.829-40.186c5.308-8.087,13.269,8.846,20.219,3.286
		c6.95-5.561-35.762-27.928-35.762-32.224c0-0.632-1.644-1.138-4.297-1.517c-0.379-2.527-0.506-4.929-0.758-7.203
		c-0.127-1.264-0.127-2.527-0.127-3.665c-0.126-7.329,1.011-13.395,2.78-18.576c8.72,2.527,17.186,6.066,25.021,10.489
		c10.362,5.813,19.84,13.142,27.928,21.608c2.78,2.906,5.308,5.813,7.708,8.973c4.929,6.318,9.226,13.016,12.764,20.092
		c5.434,10.868,9.099,22.62,10.994,34.625C420.932,510.236,421.311,516.303,421.311,522.494z"/>
	<path fill="none" stroke="#000000" stroke-width="4" stroke-linecap="round" stroke-linejoin="round" stroke-miterlimit="10" d="
		M212.804,599.705c5.434-2.653,11.12-4.802,16.807-6.697c13.901-4.929,28.307-8.593,42.965-10.741
		c18.323-2.78,36.9-3.159,55.349-0.885c15.038,1.896,29.949,5.434,44.355,10.235c6.823,2.275,13.647,4.803,20.092,8.088
		c0.127,0,0.127,0.127,0.253,0.127"/>
	<path fill="none" stroke="#000000" stroke-width="4" stroke-linecap="round" stroke-linejoin="round" stroke-miterlimit="10" d="
		M184.245,522.494c6.571-2.906,13.647-5.055,20.472-7.076c16.301-4.802,33.108-8.214,50.042-10.488"/>
	<path fill="none" stroke="#000000" stroke-width="4" stroke-linecap="round" stroke-linejoin="round" stroke-miterlimit="10" d="
		M396.416,449.58c0,0-0.126-0.126-0.252-0.126c-0.127-0.127-0.253-0.127-0.38-0.127c-6.823-3.159-14.026-5.939-21.229-8.467
		c-13.647-4.676-27.801-8.214-42.08-10.362"/>
	<path fill="none" stroke="#000000" stroke-width="4" stroke-linecap="round" stroke-linejoin="round" stroke-miterlimit="10" d="
		M209.139,449.706c5.939-2.78,12.005-5.055,18.197-7.329c14.532-5.181,29.444-9.099,44.734-11.499
		c1.769-0.253,3.665-0.632,5.56-0.759"/>
	<path fill="none" stroke="#000000" stroke-width="4" stroke-linecap="round" stroke-linejoin="round" stroke-miterlimit="10" d="
		M261.329,633.572c9.351-5.435,20.345-7.962,30.96-8.973c12.131-1.264,24.769-0.506,36.646,2.527
		c5.561,1.39,11.121,3.412,16.049,6.192"/>
</g>
<path fill="none" stroke="#000000" stroke-width="4" stroke-linecap="round" stroke-linejoin="round" stroke-miterlimit="10" d="
	M373.291,471.315c-6.95,5.56-14.911-11.373-20.219-3.286c-5.308,8.088,27.169,34.752,18.829,40.186c0,0,0,0-0.127,0
	c-2.021,1.264-4.802,0.379-8.088-1.517l0,0c-10.235-6.065-24.136-22.872-27.674-21.735c-1.77,0.632,0,8.72,2.653,18.323
	c4.17,15.67,10.362,35.763,6.445,35.763c-4.423,0-15.291-23.505-23.379-37.026c-3.285-5.56-6.065-9.351-7.708-9.225
	c-1.264,0.253-2.527,3.665-3.791,8.72c-4.17,17.06-8.087,53.2-13.142,51.937c-4.929-1.264-6.571-35.004-8.846-51.685
	c-0.758-5.434-1.516-8.972-2.527-8.972c-1.264,0-5.055,4.17-9.856,9.73c-10.236,11.879-25.021,30.328-28.938,28.307
	c-3.033-1.644,2.527-14.153,7.835-26.158c4.676-10.615,9.099-20.851,6.697-22.367c-4.928-3.286-20.092,11.246-25.779,6.444
	s25.779-25.021,25.779-29.064s-25.779-1.517-25.779-4.802c0-3.159,35.509-16.049,35.509-16.049s1.643-0.127,4.549-0.253
	c-2.906,14.027-4.423,25.779-0.758,27.675c9.352,4.928,60.783,1.011,62.047,0c1.011-0.759-2.148-15.923-3.791-28.938
	c2.653,0.253,4.297,0.758,4.297,1.517C337.529,443.388,380.241,465.755,373.291,471.315z"/>
<path fill="none" stroke="#000000" stroke-width="4" stroke-linecap="round" stroke-linejoin="round" stroke-miterlimit="10" d="
	M407.41,313.734c-0.126,0.126-0.253,0.253-0.379,0.505c0.253-0.252,0.253-0.505,0.253-0.505l-8.593-1.39c0,0-5.688,5.181-5.308,6.95
	c0.505,1.896,8.846,2.275,8.972,1.896c0,0,0.127-0.253,0.379-0.632c-0.884,1.643-1.643,3.285-2.021,4.675
	c-0.127,0.505-0.253,1.011-0.379,1.39c-0.759,4.17-0.253,8.34-1.264,11.12c-1.011,2.654-10.109,10.362-13.269,16.555
	c-3.159,6.192-5.055,9.604-12.005,13.269c-6.95,3.665-29.444,21.482-33.614,29.064c-1.896,3.412-3.665,7.203-5.055,11.5
	c-1.77,5.181-2.906,11.246-2.78,18.575c0,1.138,0.127,2.401,0.127,3.665c0.126,2.274,0.379,4.676,0.758,7.203
	c1.643,13.016,4.802,28.18,3.791,28.938c-1.264,1.011-52.695,4.928-62.047,0c-3.665-1.896-2.148-13.648,0.758-27.675
	c0.632-2.78,1.264-5.813,1.896-8.72c1.896-8.467,3.917-17.186,5.434-24.768c1.137-5.687,1.896-10.742,2.021-14.533
	c0.126-2.527-0.126-4.549-0.758-5.813c-5.181-10.488-11.247-22.114-17.186-29.443c-3.412-4.17-7.456-8.593-10.236-13.143
	c-1.77-2.906-3.159-5.813-3.412-8.846c42.333,6.445,74.305,19.84,74.305,19.84s13.521-6.192,31.971-13.9
	c2.906,1.643,5.939,3.412,7.582,4.17c0.632,0.253,1.011,0.506,1.138,0.506c0.505,0,3.032-1.011,5.434-3.286
	c1.264-1.264,2.527-2.907,3.412-5.055c0.505-1.138,0.885-2.401,1.264-3.792c1.769-6.192,3.159-14.279,5.434-16.68
	c2.653-2.907,8.593-8.846,12.511-9.604c3.917-0.758,10.867,0,10.867,0C409.433,307.921,409.559,311.586,407.41,313.734z"/>
<path fill="none" stroke="#000000" stroke-width="4" stroke-linecap="round" stroke-linejoin="round" stroke-miterlimit="10" d="
	M407.284,313.734c0,0-0.127,0.126-0.253,0.505c0,0,0,0,0,0.126c-1.264,1.39-2.78,3.791-4.17,6.318l0,0
	c-0.253,0.379-0.379,0.506-0.379,0.632c-0.127,0.379-8.467,0-8.973-1.896c-0.379-1.769,5.308-6.95,5.308-6.95L407.284,313.734z"/>
<path fill="none" stroke="#000000" stroke-width="2" stroke-linecap="round" stroke-linejoin="round" stroke-miterlimit="10" d="
	M424.597,319.674c0.505,0,0.758,0,0.758,0"/>
<path fill="none" stroke="#000000" stroke-width="2" stroke-linecap="round" stroke-linejoin="round" stroke-miterlimit="10" d="
	M406.905,323.844c-2.78,1.77-4.929,4.17-5.687,7.582c0,0,48.146-9.983,61.414-9.983l-9.351-166.174l-13.9,5.687h-0.127"/>
<path fill="none" stroke="#000000" stroke-width="2" stroke-linecap="round" stroke-linejoin="round" stroke-miterlimit="10" d="
	M374.681,340.398c-0.252,0.126-0.505,0.253-0.758,0.379c-2.401,1.011-4.55,2.022-6.571,2.906"/>
<path fill="none" stroke="#000000" stroke-width="2" stroke-linecap="round" stroke-linejoin="round" stroke-miterlimit="10" d="
	M256.906,342.293c-39.301-5.813-69.882-4.802-69.882-4.802l-11.625-162.13l11.625,3.412h0.126"/>
<path fill="none" stroke="#000000" stroke-width="4" stroke-linecap="round" stroke-linejoin="round" stroke-miterlimit="10" d="
	M294.563,392.209c0,0,10.489,7.961,20.978,7.961"/>
<path fill="none" stroke="#000000" stroke-width="4" stroke-linecap="round" stroke-linejoin="round" stroke-miterlimit="10" d="
	M328.936,401.055c2.78-0.885,7.456-1.896,7.456-1.896"/>
<g>
	<g>
		<path fill="none" stroke="#000000" stroke-width="4" stroke-linecap="round" stroke-linejoin="round" stroke-miterlimit="10" d="
			M378.599,331.932L378.599,331.932 M421.942,147.813L421.942,147.813 M400.713,325.36L400.713,325.36"/>
		<path fill="none" stroke="#000000" stroke-width="4" stroke-linecap="round" stroke-linejoin="round" stroke-miterlimit="10" d="
			M432.179,297.054c-22.746-1.264-68.112,18.071-91.364,28.812c-8.846,4.044-14.532,6.95-14.532,6.95s-2.022-0.632-5.561-1.643
			c-18.07-5.308-75.568-21.104-106.781-18.955c-2.148-31.213-8.214-119.544-10.236-149.367
			c49.663-3.286,112.468,22.367,112.468,22.367s64.321-34.372,105.77-37.405v0.126C424.217,181.806,429.904,263.061,432.179,297.054
			z"/>
		<path fill="none" stroke="#000000" stroke-width="4" stroke-linecap="round" stroke-linejoin="round" stroke-miterlimit="10" d="
			M453.408,312.85l-28.812,6.824l0,0c-2.654,0-11.626,0.379-17.691,4.17l-6.192,1.517c0.506-1.517,1.138-3.159,2.021-4.676l0,0
			c1.012-1.516,3.286-4.928,4.171-6.318c0,0,0,0,0-0.126c0.126-0.126,0.252-0.379,0.379-0.505c2.148-2.148,2.021-5.813,0-8.087
			c0,0-6.95-0.758-10.868,0c-3.917,0.758-9.856,6.697-12.51,9.604c-2.275,2.527-3.665,10.488-5.435,16.681
			c-6.57,2.527-13.016,5.055-18.828,7.456c-18.45,7.582-31.972,13.9-31.972,13.9s-31.971-13.395-74.304-19.84
			c-18.323-2.78-38.542-4.296-59.014-2.906c-1.643-24.136-10.236-149.114-10.236-149.114l2.78-2.654l16.68-16.049
			c2.022,29.823,8.088,118.154,10.236,149.367c31.087-2.148,88.71,13.647,106.781,18.955c3.538,1.011,5.56,1.643,5.56,1.643
			s5.687-2.78,14.533-6.95c23.251-10.741,68.744-30.075,91.363-28.812c-2.274-33.993-7.961-115.248-10.235-149.241l17.438,13.016
			l3.791,2.78C443.173,163.736,450.881,276.961,453.408,312.85z"/>
	</g>
	<g>
		<g>
			<path fill="none" stroke="#000000" stroke-width="2" stroke-linecap="round" stroke-linejoin="round" d="M217.985,180.922
				c0,0,2.78,0.126,7.582,0.505"/>
			
				<path fill="none" stroke="#000000" stroke-width="2" stroke-linecap="round" stroke-linejoin="round" stroke-dasharray="13.4287,11.1906" d="
				M239.594,182.943c15.669,1.896,37.152,5.181,53.959,10.994"/>
			<path fill="none" stroke="#000000" stroke-width="2" stroke-linecap="round" stroke-linejoin="round" d="M300.124,196.465
				c2.401,1.011,4.675,2.148,6.824,3.286"/>
		</g>
	</g>
	<g>
		<g>
			<path fill="none" stroke="#000000" stroke-width="2" stroke-linecap="round" stroke-linejoin="round" d="M219.122,196.465
				c0,0,2.148,0.126,5.687,0.379"/>
			
				<path fill="none" stroke="#000000" stroke-width="2" stroke-linecap="round" stroke-linejoin="round" stroke-dasharray="9.0613,9.0613" d="
				M236.182,197.981c16.807,1.769,42.712,5.56,61.541,12.637"/>
			<path fill="none" stroke="#000000" stroke-width="2" stroke-linecap="round" stroke-linejoin="round" d="M303.03,212.893
				c1.769,0.758,3.538,1.643,5.055,2.527"/>
		</g>
	</g>
	<g>
		<g>
			<path fill="none" stroke="#000000" stroke-width="2" stroke-linecap="round" stroke-linejoin="round" d="M220.259,211.629
				c0,0,2.275,0.126,6.318,0.506"/>
			
				<path fill="none" stroke="#000000" stroke-width="2" stroke-linecap="round" stroke-linejoin="round" stroke-dasharray="11.148,13.3776" d="
				M243.385,213.777c15.543,1.896,36.015,5.181,52.316,10.868"/>
			<path fill="none" stroke="#000000" stroke-width="2" stroke-linecap="round" stroke-linejoin="round" d="M303.536,227.678
				c2.022,0.885,3.917,1.77,5.687,2.78"/>
		</g>
	</g>
	<g>
		<g>
			<path fill="none" stroke="#000000" stroke-width="2" stroke-linecap="round" stroke-linejoin="round" d="M221.396,227.931
				c0,0,1.643,0.126,4.423,0.253"/>
			
				<path fill="none" stroke="#000000" stroke-width="2" stroke-linecap="round" stroke-linejoin="round" stroke-dasharray="6.7353,7.6975" d="
				M235.55,229.068c17.186,1.643,46.377,5.56,66.47,13.774"/>
			<path fill="none" stroke="#000000" stroke-width="2" stroke-linecap="round" stroke-linejoin="round" d="M306.568,244.864
				c1.391,0.632,2.654,1.264,3.918,2.022"/>
		</g>
	</g>
	<g>
		<g>
			<path fill="none" stroke="#000000" stroke-width="2" stroke-linecap="round" stroke-linejoin="round" d="M222.66,244.232
				c0,0,2.527,0.126,6.95,0.505"/>
			
				<path fill="none" stroke="#000000" stroke-width="2" stroke-linecap="round" stroke-linejoin="round" stroke-dasharray="12.9946,11.8133" d="
				M244.396,246.254c15.796,1.896,37.279,5.181,53.959,11.121"/>
			<path fill="none" stroke="#000000" stroke-width="2" stroke-linecap="round" stroke-linejoin="round" d="M305.431,260.028
				c2.275,1.011,4.296,2.021,6.192,3.033"/>
		</g>
	</g>
	<g>
		<g>
			<path fill="none" stroke="#000000" stroke-width="2" stroke-linecap="round" stroke-linejoin="round" d="M221.776,261.418
				c0,0,1.896,0.126,5.055,0.379"/>
			
				<path fill="none" stroke="#000000" stroke-width="2" stroke-linecap="round" stroke-linejoin="round" stroke-dasharray="7.1588,7.1588" d="
				M235.803,262.556c17.06,1.643,46.124,5.56,66.217,13.647"/>
			<path fill="none" stroke="#000000" stroke-width="2" stroke-linecap="round" stroke-linejoin="round" d="M306.189,277.972
				c1.643,0.758,3.033,1.517,4.55,2.275"/>
		</g>
	</g>
	<g>
		<g>
			<path fill="none" stroke="#000000" stroke-width="2" stroke-linecap="round" stroke-linejoin="round" d="M223.04,278.352
				c0,0,2.148,0.126,5.687,0.379"/>
			
				<path fill="none" stroke="#000000" stroke-width="2" stroke-linecap="round" stroke-linejoin="round" stroke-dasharray="9.0613,9.0613" d="
				M240.099,279.868c16.807,1.77,42.712,5.561,61.541,12.637"/>
			<path fill="none" stroke="#000000" stroke-width="2" stroke-linecap="round" stroke-linejoin="round" d="M306.821,294.779
				c1.77,0.758,3.538,1.643,5.055,2.527"/>
		</g>
	</g>
	<g>
		<g>
			<path fill="none" stroke="#000000" stroke-width="2" stroke-linecap="round" stroke-linejoin="round" d="M224.177,294.779
				c0,0,2.78,0.126,7.582,0.505"/>
			
				<path fill="none" stroke="#000000" stroke-width="2" stroke-linecap="round" stroke-linejoin="round" stroke-dasharray="13.4287,11.1906" d="
				M245.786,296.675c15.669,1.896,37.152,5.181,53.959,10.994"/>
			<path fill="none" stroke="#000000" stroke-width="2" stroke-linecap="round" stroke-linejoin="round" d="M306.316,310.323
				c2.4,1.011,4.675,2.148,6.823,3.285"/>
		</g>
	</g>
	<g>
		<g>
			<path fill="none" stroke="#000000" stroke-width="2" stroke-linecap="round" stroke-linejoin="round" d="M406.905,167.147
				c0,0-2.022,0.379-5.561,1.264"/>
			
				<path fill="none" stroke="#000000" stroke-width="2" stroke-linecap="round" stroke-linejoin="round" stroke-dasharray="9.1554,9.1554" d="
				M390.225,171.065c-16.555,4.296-41.954,11.752-59.646,21.609"/>
			<path fill="none" stroke="#000000" stroke-width="2" stroke-linecap="round" stroke-linejoin="round" d="M325.523,195.581
				c-1.643,1.011-3.159,2.148-4.675,3.286"/>
		</g>
	</g>
	<g>
		<g>
			<path fill="none" stroke="#000000" stroke-width="2" stroke-linecap="round" stroke-linejoin="round" d="M408.169,182.691
				c0,0-1.77,0.379-4.929,1.011"/>
			
				<path fill="none" stroke="#000000" stroke-width="2" stroke-linecap="round" stroke-linejoin="round" stroke-dasharray="7.232,7.232" d="
				M394.268,185.85c-16.807,4.17-45.365,12.384-64.321,23.251"/>
			<path fill="none" stroke="#000000" stroke-width="2" stroke-linecap="round" stroke-linejoin="round" d="M326.155,211.503
				c-1.516,1.011-2.779,1.896-4.17,2.906"/>
		</g>
	</g>
	<g>
		<g>
			<path fill="none" stroke="#000000" stroke-width="2" stroke-linecap="round" stroke-linejoin="round" d="M409.18,197.729
				c0,0-2.78,0.506-7.456,1.643"/>
			
				<path fill="none" stroke="#000000" stroke-width="2" stroke-linecap="round" stroke-linejoin="round" stroke-dasharray="13.575,11.3125" d="
				M387.949,202.783c-15.416,4.17-36.394,10.615-52.316,18.956"/>
			<path fill="none" stroke="#000000" stroke-width="2" stroke-linecap="round" stroke-linejoin="round" d="M329.314,225.277
				c-2.274,1.39-4.423,2.78-6.318,4.296"/>
		</g>
	</g>
	<g>
		<g>
			<path fill="none" stroke="#000000" stroke-width="2" stroke-linecap="round" stroke-linejoin="round" d="M410.443,214.156
				c0,0-2.78,0.506-7.456,1.643"/>
			
				<path fill="none" stroke="#000000" stroke-width="2" stroke-linecap="round" stroke-linejoin="round" stroke-dasharray="0,8.7268,8.7268,0" d="
				M392.372,218.327c-6.191,1.643-13.521,3.665-21.229,6.066"/>
			
				<path fill="none" stroke="#000000" stroke-width="2" stroke-linecap="round" stroke-linejoin="round" stroke-dasharray="8.7268,8.7268,0,8.7268,8.7268,0" d="
				M371.143,224.519c-14.153,4.423-29.317,10.236-40.564,17.186"/>
			<path fill="none" stroke="#000000" stroke-width="2" stroke-linecap="round" stroke-linejoin="round" d="M330.578,241.578
				c-2.274,1.39-4.423,2.78-6.318,4.297"/>
		</g>
	</g>
	<g>
		<g>
			<path fill="none" stroke="#000000" stroke-width="2" stroke-linecap="round" stroke-linejoin="round" d="M411.58,230.458
				c0,0-1.769,0.379-4.928,1.011"/>
			
				<path fill="none" stroke="#000000" stroke-width="2" stroke-linecap="round" stroke-linejoin="round" stroke-dasharray="7.232,7.232" d="
				M397.807,233.617c-16.808,4.17-45.366,12.384-64.321,23.252"/>
			<path fill="none" stroke="#000000" stroke-width="2" stroke-linecap="round" stroke-linejoin="round" d="M329.694,259.27
				c-1.517,1.011-2.78,1.896-4.171,2.906"/>
		</g>
	</g>
	<g>
		<g>
			<path fill="none" stroke="#000000" stroke-width="2" stroke-linecap="round" stroke-linejoin="round" d="M415.119,247.139
				c0,0-2.275,0.505-6.192,1.39"/>
			
				<path fill="none" stroke="#000000" stroke-width="2" stroke-linecap="round" stroke-linejoin="round" stroke-dasharray="9.0125,9.0125" d="
				M397.807,251.182c-16.428,4.17-41.196,11.626-58.762,21.23"/>
			<path fill="none" stroke="#000000" stroke-width="2" stroke-linecap="round" stroke-linejoin="round" d="M334.117,275.318
				c-1.896,1.138-3.539,2.401-5.182,3.539"/>
		</g>
	</g>
	<g>
		<g>
			<path fill="none" stroke="#000000" stroke-width="2" stroke-linecap="round" stroke-linejoin="round" d="M416.383,264.198
				c0,0-1.138,0.253-3.033,0.632"/>
			
				<path fill="none" stroke="#000000" stroke-width="2" stroke-linecap="round" stroke-linejoin="round" stroke-dasharray="5.2375,5.2375" d="
				M406.778,266.347c-16.554,3.917-50.8,13.142-71.271,25.905"/>
			<path fill="none" stroke="#000000" stroke-width="2" stroke-linecap="round" stroke-linejoin="round" d="M332.727,294.147
				c-0.885,0.632-1.769,1.264-2.527,1.896"/>
		</g>
	</g>
	<g>
		<g>
			<path fill="none" stroke="#000000" stroke-width="2" stroke-linecap="round" stroke-linejoin="round" d="M417.52,280.5
				c0,0-2.274,0.506-6.191,1.39"/>
			
				<path fill="none" stroke="#000000" stroke-width="2" stroke-linecap="round" stroke-linejoin="round" stroke-dasharray="9.0125,9.0125" d="
				M400.334,284.543c-16.428,4.17-41.196,11.626-58.762,21.23"/>
			<path fill="none" stroke="#000000" stroke-width="2" stroke-linecap="round" stroke-linejoin="round" d="M336.645,308.68
				c-1.896,1.137-3.539,2.401-5.182,3.539"/>
		</g>
	</g>
</g>
<path fill="none" stroke="#000000" stroke-width="2" stroke-linecap="round" stroke-linejoin="round" stroke-miterlimit="10" d="
	M407.284,313.734c0,0-0.127,0.126-0.253,0.505c0,0,0,0,0,0.126c-0.885,1.264-3.285,4.802-4.17,6.318l0,0
	c-0.253,0.379-0.379,0.506-0.379,0.632c-0.127,0.379-8.467,0-8.973-1.896c-0.379-1.769,5.308-6.95,5.308-6.95L407.284,313.734z"/>
<polygon fill="#FFFFFF" stroke="#000000" stroke-width="4" stroke-miterlimit="10" points="295.041,583.116 272.557,588.663 
	264.379,610.33 252.156,590.66 229.024,589.578 243.953,571.875 237.834,549.541 259.284,558.27 278.634,545.547 276.962,568.645 
	"/>
<circle fill="#FFFFFF" stroke="#000000" stroke-width="4" stroke-miterlimit="10" cx="261.329" cy="575.899" r="10"/>
<ellipse fill="#FFFFFF" stroke="#000000" stroke-width="4" stroke-miterlimit="10" cx="368.425" cy="565.898" rx="30.001" ry="28.618"/>
<g>
	<polyline fill="none" stroke="#000000" stroke-width="4" stroke-miterlimit="10" points="364.232,544.826 366.88,562.146 
		354.702,550.076 	"/>
	<path fill="none" stroke="#000000" stroke-width="4" stroke-miterlimit="10" d="M354.886,551.111
		c0.378-3.972,4.692-6.725,9.648-6.153"/>
</g>
<g>
	<polyline fill="none" stroke="#000000" stroke-width="4" stroke-miterlimit="10" points="348.562,556.526 363.05,566.381 
		345.918,567.081 	"/>
	<path fill="none" stroke="#000000" stroke-width="4" stroke-miterlimit="10" d="M346.8,567.651
		c-2.65-2.98-1.729-8.015,2.063-11.256"/>
</g>
<g>
	<polyline fill="none" stroke="#000000" stroke-width="4" stroke-miterlimit="10" points="350.236,576.737 366.609,570.495 
		357.379,584.945 	"/>
	<path fill="none" stroke="#000000" stroke-width="4" stroke-miterlimit="10" d="M358.354,584.548
		c-3.963,0.469-7.563-3.167-8.052-8.133"/>
</g>
<g>
	<polyline fill="none" stroke="#000000" stroke-width="4" stroke-miterlimit="10" points="369.308,587.084 369.007,569.564 
		379.456,583.159 	"/>
	<path fill="none" stroke="#000000" stroke-width="4" stroke-miterlimit="10" d="M379.413,582.107
		c-0.907,3.887-5.551,6.035-10.387,4.806"/>
</g>
<g>
	<polyline fill="none" stroke="#000000" stroke-width="4" stroke-miterlimit="10" points="389.203,576.119 373.296,568.768 
		390.084,565.273 	"/>
	<path fill="none" stroke="#000000" stroke-width="4" stroke-miterlimit="10" d="M389.118,564.854
		c3.105,2.508,3.019,7.624-0.191,11.443"/>
</g>
<g>
	<polyline fill="none" stroke="#000000" stroke-width="4" stroke-miterlimit="10" points="385.069,553.756 370.543,563.56 
		376.246,547.388 	"/>
	<path fill="none" stroke="#000000" stroke-width="4" stroke-miterlimit="10" d="M375.387,547.997
		c3.754-1.359,8.087,1.364,9.69,6.088"/>
</g>
<polygon fill="none" stroke="#000000" stroke-width="4" stroke-miterlimit="10" points="219.501,449.706 223.106,455.811 
	231.167,456.79 225.334,461.542 226.711,468.252 219.501,465.084 212.291,468.252 213.668,461.542 207.835,456.79 215.896,455.811 
	"/>
<polygon fill="none" stroke="#000000" stroke-width="4" stroke-miterlimit="10" points="222.304,478.414 224.878,482.838 
	230.636,483.548 226.47,486.992 227.454,491.855 222.304,489.56 217.153,491.855 218.137,486.992 213.971,483.548 219.729,482.838 
	"/>
<polygon fill="none" stroke="#000000" stroke-width="4" stroke-miterlimit="10" points="199.394,491.46 201.948,495.736 
	207.66,496.423 203.526,499.753 204.502,504.454 199.394,502.234 194.285,504.454 195.26,499.753 191.127,496.423 196.839,495.736 
	"/>
<line fill="none" stroke="#000000" stroke-width="4" stroke-miterlimit="10" x1="361.791" y1="468.252" x2="381.758" y2="478.414"/>
<path fill="none" stroke="#000000" stroke-width="4" stroke-miterlimit="10" d="M380.289,479.685
	c4.386,9.365,19.678,11.295,34.189,4.315"/>
<path fill="none" stroke="#000000" stroke-width="4" stroke-miterlimit="10" d="M367.703,488.095
	c7.717,11.101,28.728,9.541,46.979-3.487"/>
<line fill="none" stroke="#000000" stroke-width="4" stroke-miterlimit="10" x1="367.703" y1="488.095" x2="350.86" y2="473.333"/>
<line fill="none" stroke="#000000" stroke-width="4" stroke-miterlimit="10" x1="382.872" y1="502.108" x2="389.872" y2="476.063"/>
<line fill="none" stroke="#000000" stroke-width="4" stroke-miterlimit="10" x1="389.872" y1="476.063" x2="374.872" y2="476.063"/>
<line fill="none" stroke="#000000" stroke-width="4" stroke-miterlimit="10" x1="374.872" y1="476.063" x2="382.372" y2="467.106"/>
<line fill="none" stroke="#000000" stroke-width="4" stroke-miterlimit="10" x1="382.372" y1="467.106" x2="409.872" y2="469.565"/>
<line fill="none" stroke="#000000" stroke-width="4" stroke-miterlimit="10" x1="409.872" y1="469.565" x2="409.872" y2="478.433"/>
<line fill="none" stroke="#000000" stroke-width="4" stroke-miterlimit="10" x1="409.872" y1="478.433" x2="396.122" y2="478.433"/>
<line fill="none" stroke="#000000" stroke-width="4" stroke-miterlimit="10" x1="396.122" y1="478.433" x2="389.872" y2="502.108"/>
<line fill="none" stroke="#000000" stroke-width="4" stroke-miterlimit="10" x1="389.872" y1="502.108" x2="382.872" y2="502.108"/>
</svg>
